<svg xmlns="http://www.w3.org/2000/svg" xmlns:xlink="http://www.w3.org/1999/xlink" viewBox="0 0 83.167 127.083" fill="#fff" fill-rule="evenodd" stroke="#000" stroke-linecap="round" stroke-linejoin="round"><use xlink:href="#A" x="2.083" y="1.042"/><symbol id="A" overflow="visible"><g stroke="none" fill-rule="nonzero"><path d="M69.354 7.865H9.958L0 9.934.679 118.309c0 2.296 3.271 6.25 5.571 6.25h68.438c2.298 0 4.167-4.746 4.167-7.042V9.934l-9.5-2.069z" fill="#a57939"/><path d="M33.619 8.386l-8.508.313c-3.385 0-6.9 5-7.881 8.067l44.733.704c-.979-3.062-3.819-9.083-7.204-9.083l-7.917-.696c-.771 0-.387-7.992-6.969-7.681s-5.483 8.375-6.25 8.375z" fill="#d0cfce"/><path d="M72.833 99.49v-.362c-.004.05-.021.096-.029.146.01.073.027.146.029.219zm-9.671-83.514c.017.25-4.848 1.233-6 1.233l-41.937-1.187H8.821c.492.079-.317 96.973-.317 96.973h46.95l15.333-13.463-.317-5.95.317-75.542c0-.113-.046-2.069-.046-2.069h-7.575z"/><path d="M54 103.998c.038.037.092.054.131.09-.042-.033-.094-.052-.131-.09zm.625.408a2.04 2.04 0 0 0 .785.158c-.279 0-.542-.062-.785-.158z"/><path d="M70.197 100.047l-9.758-.738-4.462-.181-2.617 3.508v8.277l2.092 2.083z" fill="#d0cfce"/></g><g fill="none" stroke-width="4.167"><path d="M70.469 101.546l-15.45 13.494H8.529" stroke="#6a462f"/><path d="M68.471 9.932h10.383v108.375a6.25 6.25 0 0 1-6.25 6.25H6.25a6.25 6.25 0 0 1-6.25-6.25V9.932h9.617"/><path d="M70.785 18.042v81.49m-15.375 2.952v-2.942l15.371-.008-15.333 13.463H8.5V18.042m7.667 14.104h26.598m-26.598 8.333h35.379m-35.379 8.333H58.25m-42.083 8.333h28.235m-28.235 8.333h34.208m-34.167 8.333h14.838"/><path d="M53.033 7.832h-7.908a5.66 5.66 0 0 0 .423-2.146c0-3.135-2.542-5.675-5.677-5.675s-5.675 2.542-5.675 5.675c-.001.737.143 1.466.423 2.148H26.16c-4.931 0-8.929 4-8.929 8.929h44.733c0-4.931-4-8.929-8.929-8.929z" stroke-miterlimit="10"/></g></symbol></svg>